HIERARCHY
ROOT Hips
{
  OFFSET 0.000000 95.000000 0.000000
  CHANNELS 6 Xposition Yposition Zposition Zrotation Xrotation Yrotation
  JOINT Spine
  {
    OFFSET 0.000000 10.000000 0.000000
    CHANNELS 3 Zrotation Xrotation Yrotation
    JOINT Spine1
    {
      OFFSET 0.000000 12.000000 0.000000
      CHANNELS 3 Zrotation Xrotation Yrotation
      JOINT Spine2
      {
        OFFSET 0.000000 12.000000 0.000000
        CHANNELS 3 Zrotation Xrotation Yrotation
        JOINT Neck
        {
          OFFSET 0.000000 10.000000 0.000000
          CHANNELS 3 Zrotation Xrotation Yrotation
          JOINT Head
          {
            OFFSET 0.000000 8.000000 0.000000
            CHANNELS 3 Zrotation Xrotation Yrotation
            End Site
            {
              OFFSET 0.000000 10.000000 0.000000
            }
          }
        }
        JOINT LeftShoulder
        {
          OFFSET 6.000000 8.000000 0.000000
          CHANNELS 3 Zrotation Xrotation Yrotation
          JOINT LeftArm
          {
            OFFSET 12.000000 0.000000 0.000000
            CHANNELS 3 Zrotation Xrotation Yrotation
            JOINT LeftForeArm
            {
              OFFSET 24.000000 0.000000 0.000000
              CHANNELS 3 Zrotation Xrotation Yrotation
              JOINT LeftHand
              {
                OFFSET 22.000000 0.000000 0.000000
                CHANNELS 3 Zrotation Xrotation Yrotation
                JOINT LeftHandThumb1
                {
                  OFFSET 1.800000 -1.400000 0.500000
                  CHANNELS 3 Zrotation Xrotation Yrotation
                  JOINT LeftHandThumb2
                  {
                    OFFSET 2.400000 0.000000 0.000000
                    CHANNELS 3 Zrotation Xrotation Yrotation
                    JOINT LeftHandThumb3
                    {
                      OFFSET 1.900000 0.000000 0.000000
                      CHANNELS 3 Zrotation Xrotation Yrotation
                      End Site
                      {
                        OFFSET 1.600000 0.000000 0.000000
                      }
                    }
                  }
                }
                JOINT LeftHandIndex1
                {
                  OFFSET 6.600000 1.200000 0.300000
                  CHANNELS 3 Zrotation Xrotation Yrotation
                  JOINT LeftHandIndex2
                  {
                    OFFSET 2.000000 0.000000 0.000000
                    CHANNELS 3 Zrotation Xrotation Yrotation
                    JOINT LeftHandIndex3
                    {
                      OFFSET 1.200000 0.000000 0.000000
                      CHANNELS 3 Zrotation Xrotation Yrotation
                      End Site
                      {
                        OFFSET 1.000000 0.000000 0.000000
                      }
                    }
                  }
                }
                JOINT LeftHandMiddle1
                {
                  OFFSET 7.200000 0.000000 0.300000
                  CHANNELS 3 Zrotation Xrotation Yrotation
                  JOINT LeftHandMiddle2
                  {
                    OFFSET 3.000000 0.000000 0.000000
                    CHANNELS 3 Zrotation Xrotation Yrotation
                    JOINT LeftHandMiddle3
                    {
                      OFFSET 2.000000 0.000000 0.000000
                      CHANNELS 3 Zrotation Xrotation Yrotation
                      End Site
                      {
                        OFFSET 1.600000 0.000000 0.000000
                      }
                    }
                  }
                }
                JOINT LeftHandRing1
                {
                  OFFSET 7.100000 -1.000000 0.400000
                  CHANNELS 3 Zrotation Xrotation Yrotation
                  JOINT LeftHandRing2
                  {
                    OFFSET 2.600000 0.000000 0.000000
                    CHANNELS 3 Zrotation Xrotation Yrotation
                    JOINT LeftHandRing3
                    {
                      OFFSET 1.600000 0.000000 0.000000
                      CHANNELS 3 Zrotation Xrotation Yrotation
                      End Site
                      {
                        OFFSET 1.300000 0.000000 0.000000
                      }
                    }
                  }
                }
                JOINT LeftHandPinky1
                {
                  OFFSET 6.500000 -2.000000 0.500000
                  CHANNELS 3 Zrotation Xrotation Yrotation
                  JOINT LeftHandPinky2
                  {
                    OFFSET 1.900000 0.000000 0.000000
                    CHANNELS 3 Zrotation Xrotation Yrotation
                    JOINT LeftHandPinky3
                    {
                      OFFSET 1.400000 0.000000 0.000000
                      CHANNELS 3 Zrotation Xrotation Yrotation
                      End Site
                      {
                        OFFSET 1.300000 0.000000 0.000000
                      }
                    }
                  }
                }
              }
            }
          }
        }
        JOINT RightShoulder
        {
          OFFSET -6.000000 8.000000 0.000000
          CHANNELS 3 Zrotation Xrotation Yrotation
          JOINT RightArm
          {
            OFFSET -12.000000 0.000000 0.000000
            CHANNELS 3 Zrotation Xrotation Yrotation
            JOINT RightForeArm
            {
              OFFSET -24.000000 0.000000 0.000000
              CHANNELS 3 Zrotation Xrotation Yrotation
              JOINT RightHand
              {
                OFFSET -22.000000 0.000000 0.000000
                CHANNELS 3 Zrotation Xrotation Yrotation
                JOINT RightHandThumb1
                {
                  OFFSET -1.800000 -1.400000 0.500000
                  CHANNELS 3 Zrotation Xrotation Yrotation
                  JOINT RightHandThumb2
                  {
                    OFFSET -2.400000 0.000000 0.000000
                    CHANNELS 3 Zrotation Xrotation Yrotation
                    JOINT RightHandThumb3
                    {
                      OFFSET -1.900000 0.000000 0.000000
                      CHANNELS 3 Zrotation Xrotation Yrotation
                      End Site
                      {
                        OFFSET -1.600000 0.000000 0.000000
                      }
                    }
                  }
                }
                JOINT RightHandIndex1
                {
                  OFFSET -6.600000 1.200000 0.300000
                  CHANNELS 3 Zrotation Xrotation Yrotation
                  JOINT RightHandIndex2
                  {
                    OFFSET -2.000000 0.000000 0.000000
                    CHANNELS 3 Zrotation Xrotation Yrotation
                    JOINT RightHandIndex3
                    {
                      OFFSET -1.200000 0.000000 0.000000
                      CHANNELS 3 Zrotation Xrotation Yrotation
                      End Site
                      {
                        OFFSET -1.000000 0.000000 0.000000
                      }
                    }
                  }
                }
                JOINT RightHandMiddle1
                {
                  OFFSET -7.200000 0.000000 0.300000
                  CHANNELS 3 Zrotation Xrotation Yrotation
                  JOINT RightHandMiddle2
                  {
                    OFFSET -3.000000 0.000000 0.000000
                    CHANNELS 3 Zrotation Xrotation Yrotation
                    JOINT RightHandMiddle3
                    {
                      OFFSET -2.000000 0.000000 0.000000
                      CHANNELS 3 Zrotation Xrotation Yrotation
                      End Site
                      {
                        OFFSET -1.600000 0.000000 0.000000
                      }
                    }
                  }
                }
                JOINT RightHandRing1
                {
                  OFFSET -7.100000 -1.000000 0.400000
                  CHANNELS 3 Zrotation Xrotation Yrotation
                  JOINT RightHandRing2
                  {
                    OFFSET -2.600000 0.000000 0.000000
                    CHANNELS 3 Zrotation Xrotation Yrotation
                    JOINT RightHandRing3
                    {
                      OFFSET -1.600000 0.000000 0.000000
                      CHANNELS 3 Zrotation Xrotation Yrotation
                      End Site
                      {
                        OFFSET -1.300000 0.000000 0.000000
                      }
                    }
                  }
                }
                JOINT RightHandPinky1
                {
                  OFFSET -6.500000 -2.000000 0.500000
                  CHANNELS 3 Zrotation Xrotation Yrotation
                  JOINT RightHandPinky2
                  {
                    OFFSET -1.900000 0.000000 0.000000
                    CHANNELS 3 Zrotation Xrotation Yrotation
                    JOINT RightHandPinky3
                    {
                      OFFSET -1.400000 0.000000 0.000000
                      CHANNELS 3 Zrotation Xrotation Yrotation
                      End Site
                      {
                        OFFSET -1.300000 0.000000 0.000000
                      }
                    }
                  }
                }
              }
            }
          }
        }
      }
    }
  }
  JOINT LeftUpLeg
  {
    OFFSET 10.000000 -5.000000 0.000000
    CHANNELS 3 Zrotation Xrotation Yrotation
    JOINT LeftLeg
    {
      OFFSET 0.000000 -42.000000 0.000000
      CHANNELS 3 Zrotation Xrotation Yrotation
      JOINT LeftFoot
      {
        OFFSET 0.000000 -42.000000 4.000000
        CHANNELS 3 Zrotation Xrotation Yrotation
        End Site
        {
          OFFSET 0.000000 0.000000 12.000000
        }
      }
    }
  }
  JOINT RightUpLeg
  {
    OFFSET -10.000000 -5.000000 0.000000
    CHANNELS 3 Zrotation Xrotation Yrotation
    JOINT RightLeg
    {
      OFFSET 0.000000 -42.000000 0.000000
      CHANNELS 3 Zrotation Xrotation Yrotation
      JOINT RightFoot
      {
        OFFSET 0.000000 -42.000000 4.000000
        CHANNELS 3 Zrotation Xrotation Yrotation
        End Site
        {
          OFFSET 0.000000 0.000000 12.000000
        }
      }
    }
  }
}
MOTION
Frames: 6
Frame Time: 0.033333
0.0000 95.0000 0.0000 0.0000 0.0000 0.0000 0.0000 0.0000 0.0000 0.0000 0.0000 0.0000 0.0000 0.0000 0.0000 0.0000 0.0000 0.0000 0.0000 0.0000 0.0000 0.0000 0.0000 0.0000 -81.8496 -2.2511 -2.5963 -139.9456 14.8648 32.7686 -88.1078 -63.4258 103.7988 34.8961 -8.3650 -0.9564 15.2729 0.0000 0.0000 39.7132 0.0000 0.0000 -15.1165 0.7502 -1.5802 7.8204 0.0000 0.0000 3.9485 0.0000 0.0000 -45.8939 -25.7210 -61.4425 9.8161 0.0000 0.0000 4.9824 0.0000 0.0000 -47.3283 -34.9265 -59.3507 15.5006 0.0000 0.0000 7.9828 0.0000 0.0000 -45.4788 -36.9932 -49.5577 15.9748 0.0000 0.0000 14.5383 0.0000 0.0000 0.0000 0.0000 0.0000 89.4026 -19.7162 19.9187 172.7662 40.2473 280.6833 -66.8174 -59.2849 39.0354 -29.4398 -6.9066 -0.0693 25.7311 0.0000 0.0000 22.5189 0.0000 0.0000 9.8055 0.5901 1.5916 3.4740 0.0000 0.0000 4.6702 0.0000 0.0000 48.6889 -10.2732 27.2460 106.0208 0.0000 0.0000 45.1378 0.0000 0.0000 45.5160 -14.5665 29.1621 110.0000 0.0000 0.0000 43.7734 0.0000 0.0000 28.8262 -17.2739 32.2067 110.0000 0.0000 0.0000 33.7447 0.0000 0.0000 0.0000 0.0000 0.0000 0.0000 0.0000 0.0000 0.0000 0.0000 0.0000 0.0000 0.0000 0.0000 0.0000 0.0000 0.0000 0.0000 0.0000 0.0000
0.0000 95.0000 0.0000 0.0000 0.0000 0.0000 0.0000 0.0000 0.0000 0.0000 0.0000 0.0000 0.0000 0.0000 0.0000 0.0000 0.0000 0.0000 0.0000 0.0000 0.0000 0.0000 0.0000 0.0000 -81.5836 -2.8983 -3.3584 -138.2461 18.8085 42.2079 -72.3112 -68.1698 95.8955 30.4371 -7.2138 -0.1892 25.3440 0.0000 0.0000 24.2671 0.0000 0.0000 -16.8818 0.8076 -1.7060 8.9554 0.0000 0.0000 8.7517 0.0000 0.0000 -42.0209 -23.0002 -60.5947 56.5205 0.0000 0.0000 37.6753 0.0000 0.0000 -39.4939 -29.7243 -58.6148 91.1899 0.0000 0.0000 50.6165 0.0000 0.0000 -35.5572 -30.4075 -47.8688 31.4795 0.0000 0.0000 34.1822 0.0000 0.0000 0.0000 0.0000 0.0000 89.0906 -19.5619 19.8687 173.4470 41.1661 280.9407 -52.0888 -52.5448 15.4695 -32.3202 -7.7872 0.7103 16.3527 0.0000 0.0000 2.0888 0.0000 0.0000 14.4711 0.7189 1.3595 13.3005 0.0000 0.0000 6.1235 0.0000 0.0000 47.6910 -16.5814 41.2645 91.0064 0.0000 0.0000 40.2798 0.0000 0.0000 43.8955 -22.3588 42.8679 101.3810 0.0000 0.0000 39.2805 0.0000 0.0000 35.9360 -28.8094 45.4090 86.9178 0.0000 0.0000 32.4747 0.0000 0.0000 0.0000 0.0000 0.0000 0.0000 0.0000 0.0000 0.0000 0.0000 0.0000 0.0000 0.0000 0.0000 0.0000 0.0000 0.0000 0.0000 0.0000 0.0000
0.0000 95.0000 0.0000 0.0000 0.0000 0.0000 0.0000 0.0000 0.0000 0.0000 0.0000 0.0000 0.0000 0.0000 0.0000 0.0000 0.0000 0.0000 0.0000 0.0000 0.0000 0.0000 0.0000 0.0000 -81.0079 -3.3020 -3.8652 -134.2534 25.5992 57.6727 -34.7927 -44.8511 62.9680 38.8312 -11.5520 -8.9183 32.1031 0.0000 0.0000 33.7696 0.0000 0.0000 -36.4272 -9.6375 -72.0619 38.0470 0.0000 0.0000 15.8187 0.0000 0.0000 -23.2401 -22.4789 -92.8127 70.6320 0.0000 0.0000 69.9911 0.0000 0.0000 -15.2369 -27.1781 -86.3126 94.8569 0.0000 0.0000 71.5251 0.0000 0.0000 -6.1167 -30.6761 -77.7018 79.4823 0.0000 0.0000 86.4146 0.0000 0.0000 0.0000 0.0000 0.0000 88.1083 -19.1516 19.7821 174.6615 44.2533 280.6981 -42.1558 -49.1702 4.6433 -38.2908 -9.3593 2.1138 15.1034 0.0000 0.0000 2.2019 0.0000 0.0000 25.5470 0.0411 24.9412 79.0605 0.0000 0.0000 37.7601 0.0000 0.0000 37.7729 -16.5552 50.8475 98.3465 0.0000 0.0000 47.1171 0.0000 0.0000 31.9275 -22.0507 52.0541 100.4973 0.0000 0.0000 39.7437 0.0000 0.0000 19.9208 -26.6042 54.0335 100.6901 0.0000 0.0000 42.6479 0.0000 0.0000 0.0000 0.0000 0.0000 0.0000 0.0000 0.0000 0.0000 0.0000 0.0000 0.0000 0.0000 0.0000 0.0000 0.0000 0.0000 0.0000 0.0000 0.0000
0.0000 95.0000 0.0000 0.0000 0.0000 0.0000 0.0000 0.0000 0.0000 0.0000 0.0000 0.0000 0.0000 0.0000 0.0000 0.0000 0.0000 0.0000 0.0000 0.0000 0.0000 0.0000 0.0000 0.0000 -78.1565 -4.6765 -5.7572 -110.4558 46.5840 121.7324 29.1557 -33.5086 15.5543 33.3481 -9.9059 -5.9615 22.1972 0.0000 0.0000 6.6627 0.0000 0.0000 -74.7395 -24.6246 -52.6951 35.7982 0.0000 0.0000 41.2406 0.0000 0.0000 -63.7697 -30.0627 -51.4692 48.5995 0.0000 0.0000 90.0000 0.0000 0.0000 -58.9999 -29.3660 -43.0708 52.4979 0.0000 0.0000 90.0000 0.0000 0.0000 -44.3496 -26.3262 -37.3815 40.7113 0.0000 0.0000 90.0000 0.0000 0.0000 0.0000 0.0000 0.0000 85.6613 -18.7527 20.2000 177.5451 55.1822 276.8164 -9.6486 -40.2295 12.6163 -62.2928 -14.8977 20.1212 15.5928 0.0000 0.0000 16.7790 0.0000 0.0000 42.9210 -7.2726 44.8292 64.4070 0.0000 0.0000 90.0000 0.0000 0.0000 31.7523 -12.4488 46.7339 110.0000 0.0000 0.0000 51.7601 0.0000 0.0000 19.0580 -14.7863 48.6184 110.0000 0.0000 0.0000 39.3263 0.0000 0.0000 6.0524 -18.6220 50.8364 110.0000 0.0000 0.0000 42.4054 0.0000 0.0000 0.0000 0.0000 0.0000 0.0000 0.0000 0.0000 0.0000 0.0000 0.0000 0.0000 0.0000 0.0000 0.0000 0.0000 0.0000 0.0000 0.0000 0.0000
0.0000 95.0000 0.0000 0.0000 0.0000 0.0000 0.0000 0.0000 0.0000 0.0000 0.0000 0.0000 0.0000 0.0000 0.0000 0.0000 0.0000 0.0000 0.0000 0.0000 0.0000 0.0000 0.0000 0.0000 -75.3093 -5.3232 -6.8954 -62.2242 45.0461 215.3431 -34.8422 13.8755 -37.0528 86.7421 -16.9226 -2.3939 50.4902 0.0000 0.0000 13.4118 0.0000 0.0000 -9.0134 -0.7432 11.2363 110.0000 0.0000 0.0000 21.8678 0.0000 0.0000 -16.4844 0.9539 1.8060 110.0000 0.0000 0.0000 14.9399 0.0000 0.0000 -6.4083 1.2113 4.2551 110.0000 0.0000 0.0000 15.1873 0.0000 0.0000 9.7675 -0.6093 0.5764 110.0000 0.0000 0.0000 7.7506 0.0000 0.0000 0.0000 0.0000 0.0000 84.2017 -16.9145 18.6888 172.8469 74.1517 261.7609 30.9639 -12.8666 -20.0601 -90.9497 -7.3453 66.2286 27.4364 0.0000 0.0000 46.6780 0.0000 0.0000 21.0634 0.5844 72.6265 24.9513 0.0000 0.0000 90.0000 0.0000 0.0000 8.1599 -5.7521 75.0875 110.0000 0.0000 0.0000 35.7797 0.0000 0.0000 -2.5038 -10.7569 78.6932 110.0000 0.0000 0.0000 33.4120 0.0000 0.0000 -17.3661 -15.1373 82.6889 110.0000 0.0000 0.0000 37.0874 0.0000 0.0000 0.0000 0.0000 0.0000 0.0000 0.0000 0.0000 0.0000 0.0000 0.0000 0.0000 0.0000 0.0000 0.0000 0.0000 0.0000 0.0000 0.0000 0.0000
0.0000 95.0000 0.0000 0.0000 0.0000 0.0000 0.0000 0.0000 0.0000 0.0000 0.0000 0.0000 0.0000 0.0000 0.0000 0.0000 0.0000 0.0000 0.0000 0.0000 0.0000 0.0000 0.0000 0.0000 -73.4036 -4.4662 -5.9891 -46.3389 27.9760 266.2847 -57.2598 59.1992 -35.6850 93.8676 -15.2807 -17.7460 53.5695 0.0000 0.0000 23.0332 0.0000 0.0000 5.3900 -0.0571 -0.8240 110.0000 0.0000 0.0000 36.0631 0.0000 0.0000 2.7182 0.0358 -6.2808 110.0000 0.0000 0.0000 21.9248 0.0000 0.0000 7.4437 -0.9482 -7.1186 110.0000 0.0000 0.0000 23.4216 0.0000 0.0000 13.1048 -2.5647 -8.5826 110.0000 0.0000 0.0000 20.4959 0.0000 0.0000 0.0000 0.0000 0.0000 82.9595 -14.5744 16.4604 45.0268 83.4365 122.3713 -24.9825 2.9880 -40.6625 -72.9656 -14.9005 32.3204 48.7913 0.0000 0.0000 53.1687 0.0000 0.0000 29.5708 -6.4558 83.5748 9.9304 0.0000 0.0000 16.7100 0.0000 0.0000 21.0953 -18.9651 88.5588 18.1526 0.0000 0.0000 59.1085 0.0000 0.0000 11.8473 -25.0327 88.1183 40.2735 0.0000 0.0000 89.7725 0.0000 0.0000 -3.1627 -29.0701 89.8251 35.9001 0.0000 0.0000 63.6688 0.0000 0.0000 0.0000 0.0000 0.0000 0.0000 0.0000 0.0000 0.0000 0.0000 0.0000 0.0000 0.0000 0.0000 0.0000 0.0000 0.0000 0.0000 0.0000 0.0000
